<svg xmlns="http://www.w3.org/2000/svg" xml:space="preserve" id="Icons" x="0" y="0" style="enable-background:new 0 0 48 48" version="1.1" viewBox="0 0 48 48">
  <style>
    .st3{fill:none;stroke:#45413c;stroke-linecap:round;stroke-linejoin:round;stroke-miterlimit:10}.st49{fill:#00b8f0}.st50{fill:#4acfff}.st58{fill:#6dd627}.st67{fill:#9ceb60}
  </style>
  <g id="XMLID_14665_">
    <path id="XMLID_14689_" d="M13.6 19.2h4.3v22.3h-4.3z" style="fill:#debb7e"/>
    <path id="XMLID_14688_" d="M13.6 34.8c.4.2.8.3 1.3.3 1.2 0 2.3-.8 2.8-1.8.1 0 .2 0 .2.1V19.2h-4.3v15.6z" style="fill:#b89558"/>
    <path id="XMLID_14687_" d="M13.6 19.2h4.3v22.3h-4.3z" class="st3"/>
    <path id="XMLID_14686_" d="M15.2 9.4c-5.5 0-10 4.3-10.4 9.7-2.5 1-4.2 3.4-4.2 6.2 0 3.7 3 6.6 6.6 6.6 1.9 0 3.6-.8 4.8-2.1 1 .3 2.1.5 3.2.5 5.8 0 10.4-4.7 10.4-10.4S20.9 9.4 15.2 9.4z" class="st58"/>
    <path id="XMLID_14685_" d="M4.7 21.9c.4-5.4 4.9-9.7 10.4-9.7 5.3 0 9.7 3.9 10.3 9.1.1-.5.1-.9.1-1.4 0-5.8-4.7-10.4-10.4-10.4-5.5 0-10 4.3-10.4 9.7-2.5 1-4.2 3.4-4.2 6.2 0 .5.1 1 .2 1.4.4-2.3 2-4.1 4-4.9z" class="st67"/>
    <path id="XMLID_14684_" d="M15.2 9.4c-5.5 0-10 4.3-10.4 9.7-2.5 1-4.2 3.4-4.2 6.2 0 3.7 3 6.6 6.6 6.6 1.9 0 3.6-.8 4.8-2.1 1 .3 2.1.5 3.2.5 5.8 0 10.4-4.7 10.4-10.4S20.9 9.4 15.2 9.4z" class="st3"/>
    <path d="M40.7 24.5 29 17.7c-.5-.3-1.2-.3-1.7 0l-11.7 6.8c-.7.4-.9 1.2-.6 1.9.4.8 1.3 1.1 2.1.6l11-6.4 11 6.4c.8.4 1.7.1 2.1-.6.4-.7.2-1.5-.5-1.9z" style="fill:#ff6242"/>
    <path id="XMLID_14683_" d="M15.1 26.6c.1-.2.3-.3.5-.4l11.7-6.8c.5-.3 1.2-.3 1.7 0l11.7 6.8c.2.1.4.3.5.4 0-.1.1-.1.1-.2.3-.7.1-1.5-.6-1.9L29 17.7c-.5-.3-1.2-.3-1.7 0l-11.7 6.8c-.7.4-.9 1.2-.6 1.9 0 .1.1.2.1.2z" style="fill:#ff866e"/>
    <path d="M40.7 24.5 29 17.7c-.5-.3-1.2-.3-1.7 0l-11.7 6.8c-.7.4-.9 1.2-.6 1.9.4.8 1.3 1.1 2.1.6l11-6.4 11 6.4c.8.4 1.7.1 2.1-.6.4-.7.2-1.5-.5-1.9z" class="st3"/>
    <ellipse id="XMLID_14682_" cx="26.4" cy="42.5" rx="21" ry="1.5" style="opacity:.15;fill:#45413c"/>
    <path id="XMLID_14681_" d="M38.4 41.5H17.8V26.7l10.3-6.1 10.3 6.1z" style="fill:#fffacf"/>
    <path id="XMLID_14680_" d="m28.1 20.6-10.3 6.1v2.4L28.1 23l10.3 6.1v-2.4z" style="fill:#fff48c"/>
    <path id="XMLID_14679_" d="M38.4 41.5H17.8V26.7l10.3-6.1 10.3 6.1z" class="st3"/>
    <path id="XMLID_14678_" d="M29.4 41.5h-9.9v-1.3c0-.5.4-.9.9-.9h8.2c.5 0 .9.4.9.9v1.3z" style="fill:#e0e0e0;stroke:#45413c;stroke-linecap:round;stroke-linejoin:round;stroke-miterlimit:10"/>
    <path id="XMLID_14677_" d="M27.3 29.1h-5.6c-.5 0-.9.4-.9.9v9.4h7.3V30c0-.6-.3-.9-.8-.9z" style="fill:#bf8256"/>
    <path id="XMLID_14676_" d="M27.3 29.1h-5.6c-.5 0-.9.4-.9.9v1.7c0-.5.4-.9.9-.9h5.6c.5 0 .9.4.9.9V30c-.1-.6-.4-.9-.9-.9z" style="fill:#915e3a"/>
    <path id="XMLID_14675_" d="M27.3 29.1h-5.6c-.5 0-.9.4-.9.9v9.4h7.3V30c0-.6-.3-.9-.8-.9z" class="st3"/>
    <path id="XMLID_14674_" d="M35 34.2h-3.4c-.5 0-.9-.4-.9-.9v-3.4c0-.5.4-.9.9-.9H35c.5 0 .9.4.9.9v3.4c0 .5-.4.9-.9.9z" class="st49"/>
    <path id="XMLID_14673_" d="M35 29.1h-3.4c-.5 0-.9.4-.9.9v3.4c0 .5.4.9.9.9h.6l3-5.1c-.1-.1-.1-.1-.2-.1z" class="st50"/>
    <path id="XMLID_14672_" d="M25.6 34.6h-2.1c-.5 0-.9-.4-.9-.9v-2.1c0-.5.4-.9.9-.9h2.1c.5 0 .9.4.9.9v2.1c-.1.5-.5.9-.9.9z" class="st49"/>
    <path id="XMLID_14671_" d="M25.6 30.8h-2.1c-.5 0-.9.4-.9.9v2.1c0 .5.4.9.9.9h.2l2.2-3.8c-.1-.1-.2-.1-.3-.1z" class="st50"/>
    <path id="XMLID_14670_" d="M35 34.2h-3.4c-.5 0-.9-.4-.9-.9v-3.4c0-.5.4-.9.9-.9H35c.5 0 .9.4.9.9v3.4c0 .5-.4.9-.9.9z" class="st3"/>
    <path id="XMLID_14669_" d="M25.6 34.6h-2.1c-.5 0-.9-.4-.9-.9v-2.1c0-.5.4-.9.9-.9h2.1c.5 0 .9.4.9.9v2.1c-.1.5-.5.9-.9.9z" class="st3"/>
    <path id="XMLID_14668_" d="M46.6 41.5c.5-.4.9-1 .9-1.7 0-1.2-1-2.1-2.1-2.1-.5 0-1 .2-1.4.5-.4-1.8-1.9-3.1-3.8-3.1-2.1 0-3.9 1.7-3.9 3.9 0 1 .4 1.9 1 2.6h9.3z" class="st58"/>
    <path id="XMLID_14667_" d="M40.2 36.8c1.9 0 3.4 1.3 3.8 3.1.4-.3.8-.5 1.4-.5.9 0 1.6.5 2 1.3.1-.3.2-.5.2-.9 0-1.2-1-2.1-2.1-2.1-.5 0-1 .2-1.4.5-.4-1.8-1.9-3.1-3.8-3.1-2.1 0-3.9 1.7-3.9 3.9 0 .3 0 .6.1.9.3-1.8 1.9-3.1 3.7-3.1z" class="st67"/>
    <path id="XMLID_14666_" d="M46.6 41.5c.5-.4.9-1 .9-1.7 0-1.2-1-2.1-2.1-2.1-.5 0-1 .2-1.4.5-.4-1.8-1.9-3.1-3.8-3.1-2.1 0-3.9 1.7-3.9 3.9 0 1 .4 1.9 1 2.6h9.3z" class="st3"/>
  </g>
</svg>
